<?xml version="1.0" encoding="utf-8"?>
<!-- Generator: Adobe Illustrator 15.0.2, SVG Export Plug-In . SVG Version: 6.00 Build 0)  -->
<!DOCTYPE svg PUBLIC "-//W3C//DTD SVG 1.1//EN" "http://www.w3.org/Graphics/SVG/1.1/DTD/svg11.dtd">
<svg version="1.1" id="Layer_1" xmlns="http://www.w3.org/2000/svg" xmlns:xlink="http://www.w3.org/1999/xlink" x="0px" y="0px"
	 width="512px" height="512px" viewBox="0 0 512 512" enable-background="new 0 0 512 512" xml:space="preserve">
<path fill="#F1593A" d="M501.787,432.355L283.271,48.197c-5.479-9.539-16.127-14.368-26.787-14.368
	c-10.623,0-21.262,4.775-26.744,14.314c0,0-211.334,371.392-218.533,384.519C0.498,452.338,15.904,480,38.348,480H474.91
	C497.326,480,512.979,452.561,501.787,432.355"/>
<path fill="#FFFFFF" d="M256.615,417.488c-17.17,0-31.109-13.925-31.109-31.101c0-17.175,13.939-31.12,31.109-31.12
	c17.176,0,31.111,13.945,31.111,31.12C287.727,403.563,273.791,417.488,256.615,417.488 M286.338,197.641L266.996,345h-20.75
	l-19.07-147.805c-1.107-8.042-1.67-13.668-1.67-16.836c0-10.158,3.039-18.12,9.1-23.854c6.057-5.762,13.398-8.634,22.01-8.634
	c8.836,0,16.199,2.863,22.154,8.625c5.977,5.733,8.957,14.384,8.957,25.911C287.727,186.163,287.279,191.26,286.338,197.641"/>
</svg>
